HIERARCHY
ROOT hip
{
  OFFSET 0.0 0.0 0.0
  CHANNELS 6 Xposition Yposition Zposition Zrotation Yrotation Xrotation
  JOINT torso
  {
    OFFSET 0.0 0.0 0.0
    CHANNELS 3 Zrotation Xrotation Yrotation
    JOINT neck
    {
      OFFSET -8.059630999999968 325.56260699999996 64.6221310000002
      CHANNELS 3 Zrotation Xrotation Yrotation
      JOINT head
      {
        OFFSET 34.685424000000125 375.1179809999999 232.79357900000002
        CHANNELS 3 Zrotation Xrotation Yrotation
        End Site
        {
          OFFSET 0.0 0.0 0.0
        }
      }
    }
    JOINT left_collar
    {
      OFFSET -8.059630999999968 325.56260699999996 64.6221310000002
      CHANNELS 3 Zrotation Xrotation Yrotation
      JOINT left_upper_arm
      {
        OFFSET -124.124665 -15.370300999999927 25.582641999999964
        CHANNELS 3 Zrotation Xrotation Yrotation
        JOINT left_forearm
        {
          OFFSET -268.19913399999996 105.06054699999993 114.74548300000004
          CHANNELS 3 Zrotation Xrotation Yrotation
          JOINT left_hand
          {
            OFFSET -235.82003099999991 -10.198180999999977 -38.67455999999993
            CHANNELS 3 Zrotation Xrotation Yrotation
            End Site
            {
              OFFSET 0.0 0.0 0.0
            }
          }
        }
      }
    }
    JOINT right_collar
    {
      OFFSET -8.059630999999968 325.56260699999996 64.6221310000002
      CHANNELS 3 Zrotation Xrotation Yrotation
      JOINT right_upper_arm
      {
        OFFSET 162.73931899999997 -2.8598030000000563 26.244994999999903
        CHANNELS 3 Zrotation Xrotation Yrotation
        JOINT right_forearm
        {
          OFFSET 284.6506340000001 103.07031299999994 145.84521499999994
          CHANNELS 3 Zrotation Xrotation Yrotation
          JOINT right_hand
          {
            OFFSET 226.332337 -12.198241999999937 -49.27258299999994
            CHANNELS 3 Zrotation Xrotation Yrotation
            End Site
            {
              OFFSET 0.0 0.0 0.0
            }
          }
        }
      }
    }
  }
}
MOTION
Frames: 18
Frame Time: 0.01
409.98567962863643 166.02488074757912 614.9629054607025 8.282958113784089 -6.170651676937353 -61.99746197960281 1.6442622826437177 -1.1897386979442113 -0.37228927381167964 -6.029606665610174 2.3295864862960345 3.4667990291272366 0.0 0.0 0.0 6.795569899819948 0.28111529632424137 6.10823850563003 27.885754479519427 7.682324216415637 -31.67570581445343 0.6500873872044715 0.551457282932312 -13.605937048990567 0.0 0.0 0.0 -0.919482259450358 0.08253626669739508 -2.5571528731872055 -44.78086003326526 25.009724806432004 29.981991018572323 -52.34692251430879 4.283588175973198 29.89087844533859 0.0 0.0 0.0
409.91107135378644 165.97501744655253 614.9467939912172 8.268248347448038 -6.135263200281892 -61.96552963977129 1.653289119121268 -1.2404603396339784 -0.3761239952708507 -6.008847083321204 2.351195123152908 3.4512583747819705 0.0 0.0 0.0 6.780769757374544 0.2849849493893975 6.074795422520748 27.89237455896826 7.688628306963945 -31.664693599757907 0.6505274774858331 0.5509748911988009 -13.596265746628564 0.0 0.0 0.0 -0.9314108023954627 0.08338683374646898 -2.588286716732804 -44.7841626358197 25.011251706971947 29.97581583226329 -52.35484713004498 4.272953048659827 29.87091529771062 0.0 0.0 0.0
409.8338452871852 165.92493172781468 614.9338424513526 8.253944365323767 -6.102881496091947 -61.93486595401583 1.6611946080193578 -1.2882996180694057 -0.3796200936199992 -5.9888473105330755 2.3712821843958363 3.4363849575672987 0.0 0.0 0.0 6.7687118030669176 0.2887050373782234 6.044419736588698 27.8972760852664 7.693131304367614 -31.657831459771884 0.6508904864725379 0.5504735018509743 -13.58612890327562 0.0 0.0 0.0 -0.9439754053326413 0.0843198055327731 -2.6193738738566674 -44.78646634026974 25.012434050357342 29.972220328808007 -52.36050792080774 4.262590757908409 29.851696420387178 0.0 0.0 0.0
409.75402387422395 165.8746945133971 614.9238096954687 8.240027859885577 -6.073663269112352 -61.90522539464779 1.6680197249109114 -1.3331005740506807 -0.3827782813181773 -5.969443784937975 2.389700765205148 3.422096421802346 0.0 0.0 0.0 6.759440044421789 0.292318637948381 6.016930495884234 27.900372114396387 7.695750535130125 -31.65527576025644 0.6511832776510542 0.5499582285708072 -13.575639247176046 0.0 0.0 0.0 -0.9571802408071113 0.0853294103631143 -2.6506390813653895 -44.7876556573372 25.013205254137997 29.971338482535053 -52.363869336561486 4.252643079814234 29.833477234244924 0.0 0.0 0.0
409.67166638401824 165.82438865464997 614.916476942071 8.226456265885862 -6.047645610996533 -61.87638192373767 1.6738372714782157 -1.3748102361534145 -0.385610128962814 -5.9504982082770415 2.406298257096698 3.4083267269542272 0.0 0.0 0.0 6.7529388328663815 0.2958630005243688 5.992126008036965 27.90163351273587 7.696459207478979 -31.657074296533576 0.6514133391775808 0.5494342225128193 -13.564910856855391 0.0 0.0 0.0 -0.9710131750570429 0.08640884225109692 -2.682256563231536 -44.78761861111405 25.013495114125018 29.973266952476177 -52.36494943706623 4.243249941598825 29.81650412119037 0.0 0.0 0.0
409.58686919686284 165.77410854567347 614.911654828705 8.213164692325227 -6.02475110360297 -61.848129840970365 1.6787505991850986 -1.4134760923787582 -0.388137770854448 -5.931899701718557 2.420922121949842 3.395026699350032 0.0 0.0 0.0 6.749134069730747 0.29936956582289687 5.9697845883585865 27.901087170924793 7.695284895551767 -31.66316723235364 0.6515889990182478 0.5489065930822463 -13.554057728576224 0.0 0.0 0.0 -0.9854463704718661 0.08755037898194605 -2.714350294942736 -44.78625301937947 25.01323348633267 29.978058384251334 -52.36381881244915 4.234545414983176 29.801007563429966 0.0 0.0 0.0
409.49976551045603 165.72395910472892 614.909189519727 8.20006868906121 -6.004796618005212 -61.82028441478939 1.68289128168089 -1.449240167119443 -0.3903932304260888 -5.913565671127817 2.433426179961406 3.3821637291774276 0.0 0.0 0.0 6.7478965959813975 0.3028640920045878 5.949666720701865 27.898811800136144 7.692305808262717 -31.673392220152817 0.6517195341297394 0.5483803351713538 -13.543192381136677 0.0 0.0 0.0 -1.0004370004027459 0.08874549261917514 -2.746995295747179 -44.78347309160077 25.012354322965244 29.985715314202302 -52.36059837522074 4.226653622840595 29.787195215316906 0.0 0.0 0.0
409.41052456598646 165.6740541789737 614.9089676730437 8.187067775389593 -5.987505492176121 -61.79268264020648 1.6864157722566042 -1.4823298459233454 -0.3924173805516129 -5.895441515308968 2.4436771657509926 3.369720728336828 0.0 0.0 0.0 6.749047634697536 0.3063668298058138 5.931518818705025 27.894931573568456 7.687645064230481 -31.687493397631393 0.6518151427705849 0.5478602642570245 -13.532424496438475 0.0 0.0 0.0 -1.015928039947286 0.08998495456496086 -2.780219638808085 -44.77921596509824 25.010799859276947 29.99618516310398 -52.35545601744268 4.219684708039119 29.775245160150266 0.0 0.0 0.0
409.31935049665316 165.6245144508247 614.9109200939728 8.174049647872778 -5.972522685524627 -61.7651844268725 1.689501100963214 -1.5130456798656107 -0.3942585635047208 -5.877499348587226 2.451561284434234 3.357694490681761 0.0 0.0 0.0 6.752366044370156 0.30989269493288957 5.915078636251546 27.889608001986772 7.681463302922225 -31.705133740105754 0.651886767361362 0.5473509596442191 -13.521859587426835 0.0 0.0 0.0 -1.0318491252334452 0.09125894023703214 -2.8140068995628638 -44.77344776335211 25.008524717539434 30.00935679534077 -52.348602163316 4.213731024493947 29.765299624402658 0.0 0.0 0.0
409.2264808959727 165.57546493769894 614.9150239290866 8.160894976943766 -5.959432438052419 -61.737674435233885 1.6923396837585196 -1.5417464886767962 -0.39597090397034895 -5.859735926783728 2.4569904903620876 3.346093607626267 0.0 0.0 0.0 6.757597031837851 0.3134514003559214 5.900082196301081 27.883030546029328 7.673950065741329 -31.725910036910925 0.6519457800156695 0.5468567151459667 -13.511597687264121 0.0 0.0 0.0 -1.0481175061180104 0.09255714089772335 -2.848298829511432 -44.76616874746685 25.00549967340651 30.025059065879155 -52.340284298542954 4.2088637159386995 29.757459431736105 0.0 0.0 0.0
409.1321851915262 165.52703218680324 614.9213032802521 8.147482691283056 -5.9477778964338155 -61.710064661793545 1.6951333368911703 -1.568832173003935 -0.3976123568385034 -5.842169966962294 2.4599082120885893 3.3349360920804507 0.0 0.0 0.0 6.764461877598913 0.31704753084510595 5.886271914871204 27.875406559366766 7.665314469519285 -31.749369576260698 0.6520035680702052 0.5463814958641428 -13.501732064677906 0.0 0.0 0.0 -1.0646391418322037 0.09386889108065849 -2.8829981270560507 -44.75741715388494 25.00171482697496 30.043061678030398 -52.33078061254158 4.205129844530134 29.751779473655187 0.0 0.0 0.0
409.036762890942 165.4793412769523 614.92982814835 8.133695635343537 -5.937082106882184 -61.68229774894916 1.6980866122785145 -1.59472473839772 -0.39924253911422025 -5.824839041808499 2.460294254907137 3.324246856026094 0.0 0.0 0.0 6.772668163904306 0.3206805620296319 5.873405437954162 27.866951203546364 7.65577574624448 -31.7750275151575 0.6520710761616035 0.5459288993449868 -13.492347981403865 0.0 0.0 0.0 -1.0813099968693107 0.09518331876668357 -2.9179712562187876 -44.74727137439667 24.997181941190806 30.063078533082138 -52.32039293948872 4.2025502171221305 29.748265449354406 0.0 0.0 0.0
408.9405417404967 165.43251275112956 614.9407116482427 8.119426471409133 -5.926869721727472 -61.654350880027195 1.7013995909027733 -1.619848116822433 -0.4009204012685808 -5.8077962138491825 2.458168627808755 3.3140551746123883 0.0 0.0 0.0 6.781919985354564 0.32434484178148604 5.8612646236100305 27.85787795591501 7.645554214056862 -31.802383925232792 0.6521583703453224 0.5455021189387297 -13.48352150820177 0.0 0.0 0.0 -1.0980175837598682 0.09648952219597748 -2.953051323494252 -44.73585023408016 24.99193575373387 30.084773582856077 -52.309439222771964 4.201118031730154 29.746872083859152 0.0 0.0 0.0
408.8438758057245 165.38665961519632 614.954105475208 8.104583683592777 -5.916688730936486 -61.62624002753699 1.7052602918393212 -1.6446074359103215 -0.40270179776165044 -5.791106556259963 2.4535940678067543 3.304392254184852 0.0 0.0 0.0 6.791927663019467 0.32802956087822066 5.849664098606265 27.84839024606147 7.634863173498992 -31.83093964186438 0.6522742881581785 0.5451039066566316 -13.475318404625256 0.0 0.0 0.0 -1.1146427746822587 0.09777677276667804 -2.988041058185816 -44.723311248184515 24.986034131031236 30.10776901870174 -52.298245750462264 4.200798431321362 29.747502972341717 0.0 0.0 0.0
408.7471434530479 165.34188454553123 614.9701936530728 8.089097524266194 -5.906131514523428 -61.59802425663631 1.7098368787226241 -1.669368427974031 -0.4046370204569369 -5.774843688057485 2.446677073422001 3.2952890043762744 0.0 0.0 0.0 6.80241655904399 0.3317187435545177 5.838458876837061 27.838674626838554 7.6239021110549245 -31.860210253054625 0.6524262289727627 0.5447365325047274 -13.467793053251373 0.0 0.0 0.0 -1.131061869382074 0.09903473851997892 -3.0227159525847873 -44.7098468827992 24.979557012256613 30.13165545985103 -52.28713941582022 4.201529007076845 29.75001211983207 0.0 0.0 0.0
408.6507451844205 165.2982774456831 614.989184657975 8.072925722001466 -5.894854516678714 -61.56980974594109 1.7152698756401659 -1.6944376907908383 -0.4067683632601293 -5.759086433023182 2.4375673119198717 3.286774095814614 0.0 0.0 0.0 6.813134679464839 0.3353912887041758 5.827550615084199 27.828895740643947 7.612851465008873 -31.889737788541815 0.652620124681268 0.5444017375380258 -13.460987431631734 0.0 0.0 0.0 -1.147148864105889 0.10025371745625758 -3.056827607813889 -44.69567900452533 24.972604187301226 30.156003645948307 -52.27644024810942 4.203221238887716 29.754207149258363 0.0 0.0 0.0
408.55510125106144 165.2559134770758 615.0113020864345 8.056058747602773 -5.88259586807614 -61.541753171177476 1.7216646374174116 -1.7200445114001057 -0.4091277914399403 -5.743915693025434 2.426455332900737 3.2788723645906983 0.0 0.0 0.0 6.823858847228423 0.33902109076757364 5.816892180006447 27.819193196969625 7.601869081958298 -31.91909987578927 0.6528606135015693 0.5441006788560215 -13.454930109324678 0.0 0.0 0.0 -1.1627778194332439 0.1014248647795624 -3.0901073066898666 -44.68105187062938 24.965292059733496 30.180377003140773 -52.26645443606291 4.205762800881967 29.75985404352161 0.0 0.0 0.0
408.4606489441479 165.214851666666 615.0367741154733 8.03852441778827 -5.869190331309419 -61.51406410116097 1.7290843483261356 -1.7463249416803095 -0.4117347937450121 -5.729411606199216 2.413568604262746 3.2716036015999004 0.0 0.0 0.0 6.834399321017598 0.34257726642056563 5.806490300172389 27.80968034056453 7.591088371894524 -31.94791630908729 0.653151419708814 0.5438338663876324 -13.449635271926015 0.0 0.0 0.0 -1.1778251869000016 0.10254039451723586 -3.122269808851628 -44.66622415195299 24.95774964376875 30.204344366242925 -52.25746802819712 4.2090206044610055 29.766683187896955 0.0 0.0 0.0
